<svg xmlns="http://www.w3.org/2000/svg" xmlns:xlink="http://www.w3.org/1999/xlink" preserveAspectRatio="xMidYMid meet" version="1.0" viewBox="0.0 0.0 3500.9 3275.5" zoomAndPan="magnify" style="fill: rgb(0, 0, 0);" original_string_length="6436" width="47.5016807455113px" height="44.448873499655825px"><defs><clipPath id="__id0_symy422eug"><path d="M 355 576 L 3500.890625 576 L 3500.890625 3275.519531 L 355 3275.519531 Z M 355 576"/></clipPath></defs><g><g id="__id1_symy422eug"><path d="M 3293.835938 465.261719 C 3307.910156 505.453125 3315.0625 548.328125 3315.0625 592.347656 L 3315.0625 2704.402344 C 3315.0625 2750.191406 3307.246094 2794.859375 3291.835938 2836.851562 C 3283.5625 2859.410156 3273.519531 2881.300781 3261.230469 2901.851562 C 3243.140625 2948.75 3210.308594 2988.511719 3168.308594 3015.089844 C 3159.386719 3020.902344 3149.988281 3026.03125 3140.175781 3030.5 C 3139.945312 3030.5 3139.71875 3030.71875 3139.488281 3030.71875 C 3075.386719 3073.609375 2999.910156 3096.839844 2922.621094 3096.839844 L 347.761719 3096.839844 C 312.253906 3096.839844 277.40625 3092.148438 243.90625 3082.769531 C 304.433594 3133.238281 382.160156 3163.839844 466.589844 3163.839844 L 3041.429688 3163.839844 C 3232.640625 3163.839844 3389.210938 3007.269531 3389.210938 2816.082031 L 3389.210938 704.023438 C 3389.210938 611.765625 3353.011719 527.558594 3293.835938 465.261719" style="fill: rgb(0, 0, 0);"/></g><g clip-path="url(#__id0_symy422eug)" id="__id2_symy422eug"><path d="M 3405.535156 576.929688 C 3419.605469 617.113281 3426.734375 660.003906 3426.734375 704.015625 L 3426.734375 2816.078125 C 3426.734375 2861.859375 3418.917969 2906.539062 3403.515625 2948.53125 C 3395.246094 2971.089844 3385.195312 2992.980469 3372.910156 3013.519531 C 3354.828125 3060.429688 3321.988281 3100.179688 3279.996094 3126.769531 C 3271.0625 3132.570312 3261.675781 3137.710938 3251.839844 3142.179688 C 3251.648438 3142.179688 3251.410156 3142.398438 3251.195312 3142.398438 C 3187.085938 3185.28125 3111.589844 3208.507812 3034.3125 3208.507812 L 459.441406 3208.507812 C 423.929688 3208.507812 389.085938 3203.820312 355.582031 3194.441406 C 416.113281 3244.921875 493.839844 3275.519531 578.269531 3275.519531 L 3153.128906 3275.519531 C 3344.324219 3275.519531 3500.898438 3118.949219 3500.898438 2927.757812 L 3500.898438 815.699219 C 3500.898438 723.453125 3464.707031 639.238281 3405.535156 576.929688" style="fill: rgb(0, 0, 0);"/></g><g id="__id3_symy422eug"><path d="M 957.523438 356.023438 L 2293.195312 356.023438 C 2305.46875 356.023438 2315.53125 345.984375 2315.53125 333.691406 L 2315.53125 266.691406 C 2315.53125 254.398438 2305.46875 244.355469 2293.195312 244.355469 L 957.523438 244.355469 C 945.238281 244.355469 935.191406 254.398438 935.191406 266.691406 L 935.191406 333.691406 C 935.191406 345.984375 945.238281 356.023438 957.523438 356.023438" style="fill: rgb(0, 0, 0);"/></g><g id="__id4_symy422eug"><path d="M 118.820312 2762.019531 L 118.820312 1132.855469 L 3158.707031 1132.855469 L 3158.707031 2704.398438 C 3158.707031 2834.839844 3053.054688 2940.492188 2922.617188 2940.492188 L 347.761719 2940.492188 C 318.730469 2940.492188 291.035156 2935.351562 265.570312 2925.75 C 262.21875 2924.398438 258.867188 2923.058594 255.519531 2921.5 C 188.0625 2893.128906 136.914062 2834.167969 118.820312 2762.019531 Z M 466.589844 3052.160156 L 2922.617188 3052.160156 C 3007.488281 3052.160156 3085.4375 3021.339844 3145.988281 2970.417969 C 3192.65625 2931.109375 3228.851562 2879.960938 3249.835938 2821.660156 C 3263.242188 2785.027344 3270.382812 2745.5 3270.382812 2704.398438 L 3270.382812 592.339844 C 3270.382812 521.976562 3249.394531 456.53125 3213.203125 401.816406 C 3199.578125 380.808594 3183.726562 361.386719 3165.851562 343.972656 C 3103.09375 282.539062 3017.320312 244.355469 2922.617188 244.355469 L 2672.90625 244.355469 C 2660.628906 244.355469 2650.574219 254.386719 2650.574219 266.6875 L 2650.574219 333.699219 C 2650.574219 345.980469 2660.628906 356.03125 2672.90625 356.03125 L 2922.617188 356.03125 C 2993.644531 356.03125 3057.527344 387.511719 3100.863281 437.550781 C 3113.585938 452.515625 3124.761719 468.828125 3133.6875 486.6875 C 3149.78125 518.40625 3158.707031 554.359375 3158.707031 592.339844 L 3158.707031 1021.183594 L 111.679688 1021.183594 L 111.679688 592.339844 C 111.679688 574.464844 113.683594 557.050781 117.484375 540.296875 C 117.484375 540.074219 117.710938 539.855469 117.710938 539.855469 C 131.554688 478.640625 169.078125 426.375 220.226562 393.550781 C 257.085938 369.652344 300.636719 356.03125 347.761719 356.03125 L 577.820312 356.03125 C 590.105469 356.03125 600.15625 345.980469 600.15625 333.699219 L 600.15625 266.6875 C 600.15625 254.386719 590.105469 244.355469 577.820312 244.355469 L 347.761719 244.355469 C 156.125 244.355469 0 400.472656 0 592.339844 L 0 2704.398438 C 0 2833.050781 71.027344 2946.289062 175.777344 3006.152344 C 183.820312 3011.070312 192.308594 3015.308594 200.796875 3019.332031 C 245.46875 3040.328125 295.277344 3052.160156 347.761719 3052.160156 L 466.589844 3052.160156" style="fill: rgb(0, 0, 0);"/></g><g id="__id5_symy422eug"><path d="M 767.675781 627.847656 C 823.070312 627.847656 868.183594 582.953125 868.183594 527.34375 L 868.183594 128.199219 C 868.183594 72.585938 823.070312 27.695312 767.675781 27.695312 C 712.058594 27.695312 667.164062 72.585938 667.164062 128.199219 L 667.164062 527.34375 C 667.164062 582.953125 712.058594 627.847656 767.675781 627.847656" style="fill: rgb(0, 0, 0);"/></g><g id="__id6_symy422eug"><path d="M 2483.050781 600.378906 C 2538.433594 600.378906 2583.566406 555.265625 2583.566406 499.863281 L 2583.566406 100.515625 C 2583.566406 45.113281 2538.433594 0 2483.050781 0 C 2427.449219 0 2382.535156 45.113281 2382.535156 100.515625 L 2382.535156 499.863281 C 2382.535156 555.265625 2427.449219 600.378906 2483.050781 600.378906" style="fill: rgb(0, 0, 0);"/></g><g id="__id7_symy422eug"><path d="M 1379.664062 2559.671875 C 1379.226562 2559.671875 1378.773438 2559.671875 1378.324219 2559.671875 C 1344.15625 2559.253906 1312.066406 2543.222656 1291.207031 2516.152344 L 889.171875 1994.382812 C 851.523438 1945.523438 860.605469 1875.40625 909.464844 1837.757812 C 958.335938 1800.121094 1028.457031 1809.226562 1066.085938 1858.066406 L 1381.835938 2267.824219 L 2106.121094 1373.257812 C 2144.894531 1325.308594 2215.246094 1317.914062 2263.179688 1356.730469 C 2311.101562 1395.535156 2318.511719 1465.855469 2279.695312 1513.804688 L 1466.464844 2518.273438 C 1445.242188 2544.460938 1413.34375 2559.671875 1379.664062 2559.671875" style="fill: rgb(0, 0, 0);"/></g></g></svg>