<?xml version="1.0" encoding="UTF-8"?>
<svg version="1.1" xmlns="http://www.w3.org/2000/svg" width="200" height="200">
<path d="M0 0 C6.26939602 0.4301869 12.54601496 0.57324459 18.82659912 0.75439453 C27.96027363 1.06809462 37.08423278 1.45448731 46.2008667 2.10205078 C47.13515503 2.15679565 48.06944336 2.21154053 49.03204346 2.26794434 C56.06749826 2.82560086 60.83932497 4.49700047 65.7699585 9.81689453 C67.91668171 13.03697935 68.52108395 15.47970909 68.49261475 19.26611328 C68.48939209 20.0234375 68.48616943 20.78076172 68.48284912 21.56103516 C68.47447021 22.34671875 68.46609131 23.13240234 68.4574585 23.94189453 C68.45294678 24.73917969 68.44843506 25.53646484 68.44378662 26.35791016 C68.432017 28.3234371 68.41408198 30.28892538 68.3949585 32.25439453 C69.57469238 32.21511841 69.57469238 32.21511841 70.77825928 32.17504883 C74.35862066 32.07079977 77.9386623 32.00597703 81.5199585 31.94189453 C82.7574585 31.9 83.9949585 31.85810547 85.2699585 31.81494141 C95.54752483 31.67680207 95.54752483 31.67680207 99.199646 34.64892578 C102.4002 38.44744806 102.52210243 40.24723926 102.53540039 45.14910889 C102.54111053 46.40531036 102.54682068 47.66151184 102.55270386 48.95578003 C102.55394929 50.35577383 102.55507437 51.75576774 102.55609131 53.15576172 C102.56071858 54.62413661 102.56574312 56.09251029 102.57113647 57.56088257 C102.58427312 61.55690686 102.59070814 65.55291435 102.59514713 69.54895687 C102.59807643 72.04524653 102.60218101 74.54153157 102.60665131 77.03781891 C102.6203309 84.84717181 102.62999473 92.65651419 102.6338532 100.46587825 C102.63833223 109.48202506 102.65587095 118.49802014 102.68485379 127.51412082 C102.70647351 134.48150403 102.71655767 141.44884456 102.71789432 148.41626096 C102.71894234 152.57815202 102.72484921 156.73990053 102.74271393 160.90175629 C102.75919919 164.8186195 102.76134799 168.73523312 102.75257492 172.65211868 C102.75180473 174.08800805 102.75614498 175.52391086 102.76603317 176.95976639 C102.77876237 178.92371857 102.77108063 180.88777113 102.76245117 182.85174561 C102.76391773 183.94976879 102.76538429 185.04779198 102.76689529 186.17908859 C102.02712825 192.29574607 98.97517868 196.31327484 94.3949585 200.25439453 C89.80597809 202.99513896 86.43371718 203.631886 81.11482239 203.64207458 C80.04873384 203.65015289 80.04873384 203.65015289 78.96110815 203.6583944 C76.59130472 203.67264564 74.22206212 203.66557754 71.85223389 203.65844727 C70.14843803 203.66415233 68.444646 203.67111712 66.74085999 203.679245 C62.12100271 203.69717642 57.50133537 203.69600806 52.88145375 203.69030261 C49.02208383 203.68721076 45.1627504 203.69330317 41.30338567 203.69934136 C32.19756719 203.7133849 23.09184252 203.71182669 13.98602295 203.70043945 C4.59740991 203.6889579 -4.79091749 203.70303491 -14.17949289 203.72983593 C-22.24591899 203.75199907 -30.31225547 203.75862893 -38.37870985 203.75275952 C-43.19395352 203.74939027 -48.00901408 203.75180292 -52.8242321 203.76901054 C-57.3527002 203.7844874 -61.88074542 203.78051597 -66.40919685 203.7617054 C-68.06880742 203.75802158 -69.72844937 203.76112197 -71.38803101 203.77159119 C-73.6584799 203.78481781 -75.92753217 203.7732407 -78.19792175 203.75559998 C-79.46681212 203.75539069 -80.7357025 203.75518141 -82.04304409 203.75496578 C-87.5046352 202.98744263 -91.19291486 200.77800485 -94.9800415 196.69189453 C-97.42368301 193.02643228 -97.77967415 190.03024592 -98.02137756 185.72291565 C-98.08633926 184.57074051 -98.15130096 183.41856537 -98.2182312 182.23147583 C-98.2837619 180.96488129 -98.3492926 179.69828674 -98.41680908 178.39331055 C-98.4518712 177.73491495 -98.48693333 177.07651936 -98.52305794 176.39817238 C-99.21822972 163.25940734 -99.63914852 150.11453986 -99.96690845 136.96193027 C-100.18049747 128.60814456 -100.47505626 120.27407456 -100.97930908 111.93237305 C-104.64659213 49.88921138 -104.64659213 49.88921138 -84.57632446 26.56785583 C-60.66983248 0.14508815 -33.82632778 -2.62152495 0 0 Z M-47.6050415 9.25439453 C-47.61438721 10.08575928 -47.62373291 10.91712402 -47.63336182 11.77368164 C-47.67774209 14.89966297 -47.73951755 18.02471349 -47.81256104 21.15014648 C-47.85420027 23.15146224 -47.87630701 25.15315394 -47.89801025 27.15478516 C-48.08029328 34.39142135 -48.29530727 41.16013334 -52.6050415 47.25439453 C-57.87571704 51.64430838 -63.49960259 52.36013057 -70.1206665 52.57080078 C-71.37105713 52.61269531 -72.62144775 52.65458984 -73.909729 52.69775391 C-75.21168213 52.73707031 -76.51363525 52.77638672 -77.8550415 52.81689453 C-79.83117432 52.88166992 -79.83117432 52.88166992 -81.847229 52.94775391 C-85.09972938 53.0538137 -88.35230542 53.15587477 -91.6050415 53.25439453 C-91.67514901 70.622179 -91.72803819 87.98991925 -91.76047802 105.35781288 C-91.77594132 113.42218381 -91.79702053 121.48646678 -91.83135986 129.55078125 C-91.86127871 136.58033729 -91.88062042 143.60982962 -91.88730699 150.63944757 C-91.89121505 154.36096546 -91.90038822 158.0823011 -91.92223167 161.80376053 C-91.94642926 165.96007595 -91.9470099 170.11607529 -91.94561768 174.27246094 C-91.9564035 175.50388824 -91.96718933 176.73531555 -91.978302 178.00405884 C-91.9944108 186.05961331 -91.9944108 186.05961331 -88.6050415 193.25439453 C-84.5164222 196.95970578 -80.97331786 197.37917862 -75.58766174 197.37464905 C-74.3298288 197.37602371 -73.07199585 197.37739838 -71.77604675 197.3788147 C-70.37960792 197.37527555 -68.98316932 197.37164074 -67.58673096 197.36791992 C-66.11832684 197.36763789 -64.64992259 197.36779609 -63.18151855 197.36836243 C-59.1921417 197.36864978 -55.2027948 197.36276297 -51.21342492 197.35578847 C-47.04539659 197.34954472 -42.87736761 197.34895032 -38.70933533 197.34776306 C-30.81520949 197.34465277 -22.92109747 197.33644343 -15.02697772 197.32641357 C-6.04038212 197.31524309 2.94621414 197.30973962 11.93281496 197.30471814 C30.42020398 197.29426058 48.90758013 197.27666695 67.3949585 197.25439453 C66.74523575 196.27302521 66.095513 195.29165588 65.42610168 194.2805481 C62.11579224 187.59096621 62.84937747 180.1182513 62.89666748 172.8359375 C62.89284055 171.16963211 62.88721831 169.50333003 62.87994385 167.83703613 C62.86802555 164.26080742 62.86845735 160.68487248 62.87853813 157.10863876 C62.89413761 151.45221191 62.88039496 145.79608513 62.86250305 140.13967896 C62.83172755 129.1567192 62.83018068 118.17385184 62.83215332 107.19085693 C62.83354761 93.20358534 62.82320214 79.21638449 62.78357559 65.2291652 C62.76864794 59.60753453 62.76890713 53.98617076 62.78105342 48.36453605 C62.78576507 44.8679641 62.77824383 41.3714943 62.76750946 37.87493896 C62.76510412 36.25521902 62.76783584 34.63548196 62.77611732 33.0157814 C62.78675754 30.80223352 62.77897343 28.58946899 62.76676941 26.37594604 C62.76735572 25.13822889 62.76794203 23.90051174 62.7685461 22.62528801 C62.25694461 18.00909066 60.860008 14.58209564 57.3949585 11.44189453 C54.29304132 9.60013121 51.77042929 9.12970762 48.23780823 9.13414001 C47.39226883 9.13276535 46.54672943 9.13139069 45.67556763 9.12997437 C44.7512796 9.13356964 43.82699158 9.13716492 42.87469482 9.14086914 C41.89889969 9.14072311 40.92310455 9.14057709 39.91773987 9.14042664 C36.68746733 9.14112415 33.45725223 9.14890908 30.22698975 9.15673828 C27.98925305 9.15860303 25.75151594 9.16002667 23.51377869 9.161026 C17.62009558 9.16484669 11.72643706 9.17467318 5.83276367 9.18572998 C-0.17970446 9.19595372 -6.19217656 9.20052569 -12.20465088 9.20556641 C-24.0047919 9.21629582 -35.80491466 9.2333669 -47.6050415 9.25439453 Z M86.72660828 40.79734802 C84.89829011 44.17080464 84.98645762 47.26462035 85.02606201 51.00463867 C85.02229553 51.78068954 85.01852905 52.55674042 85.01464844 53.35630798 C85.008222 55.03795731 85.00854036 56.71964297 85.01483345 58.4012928 C85.02394048 61.06167539 85.01372566 63.72135277 84.99821472 66.38169861 C84.95809631 73.9438264 84.95691716 81.50589874 84.95916748 89.06811523 C84.95921849 93.69589103 84.94009802 98.32328508 84.90983391 102.95095634 C84.89898013 105.57416483 84.91115413 108.19665381 84.92366028 110.81983948 C84.9147592 112.42441529 84.90468598 114.02898518 84.89324951 115.63354492 C84.90299301 116.364534 84.91273651 117.09552307 84.92277527 117.84866333 C84.87871662 120.93765626 84.78961033 122.78930128 82.75444031 125.18772888 C79.81392213 126.51706726 77.36285765 126.76700871 74.1449585 126.94189453 C73.06730225 127.00763672 71.989646 127.07337891 70.8793335 127.14111328 C69.64956787 127.1971875 69.64956787 127.1971875 68.3949585 127.25439453 C68.32518025 134.54804112 68.27200697 141.8416147 68.23952198 149.13552856 C68.22392389 152.52309026 68.20279443 155.91042211 68.16864014 159.29785156 C68.13212374 163.20009356 68.115201 167.10201244 68.10198975 171.00439453 C68.08650589 172.20990967 68.07102203 173.4154248 68.05506897 174.6574707 C68.05376092 181.24168223 68.44291633 186.3198004 71.3949585 192.25439453 C75.44489542 195.84411135 78.979597 197.25439453 84.3949585 197.25439453 C89.00658805 195.73136558 93.05038513 193.66770911 95.3949585 189.25439453 C96.45235844 185.92540177 96.52309867 182.84609135 96.52867126 179.36473083 C96.53293625 178.16034363 96.53720123 176.95595642 96.54159546 175.71507263 C96.54114227 174.39701126 96.54068909 173.07894989 96.54022217 171.72094727 C96.54321486 170.31637482 96.54661765 168.9118032 96.55039978 167.50723267 C96.55923039 163.6954018 96.56157743 159.88359337 96.56221557 156.07175326 C96.5631653 152.89061275 96.56684415 149.70947747 96.57038766 146.52833897 C96.57852781 139.02597003 96.58097221 131.52361308 96.58026123 124.02124023 C96.57965978 116.27656781 96.59022593 108.53196489 96.60600489 100.78731006 C96.61906636 94.14010045 96.62444575 87.49291361 96.62380582 80.84569126 C96.62355052 76.87454952 96.62641941 72.90346961 96.63698387 68.93234062 C96.64664203 65.20017154 96.64675984 61.46812374 96.63946724 57.73595047 C96.63841871 56.36491914 96.64080013 54.99388034 96.6468277 53.62286186 C96.65451205 51.75428127 96.6487196 49.8856596 96.64219666 48.01707458 C96.64274142 46.97050406 96.64328619 45.92393354 96.64384747 44.84564877 C96.57816832 42.01721828 96.57816832 42.01721828 94.3949585 39.25439453 C90.17449772 38.61720627 90.17449772 38.61720627 86.72660828 40.79734802 Z " fill="#000000" transform="translate(97.60504150390625,-3.25439453125)"/>
</svg>
