<svg preserveAspectRatio="xMidYMid meet" version="1.0" viewBox="-0.3 -0.2 143.5 175.3" xmlns="http://www.w3.org/2000/svg" xmlns:xlink="http://www.w3.org/1999/xlink" zoomAndPan="magnify" style="fill: rgb(0, 0, 0);" original_string_length="5030" width="67.66971499148558px" height="82.1596981132827px"><g id="__id11_sr1iphbhl"><path d="M34.94,33.45l1.17,0.61c0.33,0.17,0.67,0.25,1.02,0.25c0.8,0,1.57-0.43,1.96-1.18 c0.56-1.07,0.14-2.4-0.94-2.96l-1.17-0.61C35.9,29,34.56,29.42,34,30.5C33.44,31.57,33.86,32.89,34.94,33.45z M38.35,25.38 l0.75,0.26c0.24,0.08,0.48,0.12,0.72,0.12c0.92,0,1.77-0.57,2.09-1.48c0.4-1.15-0.22-2.39-1.37-2.79l-0.75-0.26 c-1.15-0.4-2.41,0.22-2.8,1.36C36.58,23.74,37.2,24.99,38.35,25.38z M44.65,19.78l0.51,0.2c0.26,0.1,0.53,0.15,0.8,0.15 c0.88,0,1.72-0.53,2.06-1.4c0.44-1.13-0.12-2.4-1.26-2.84l-0.51-0.2c-1.14-0.44-2.41,0.12-2.85,1.25 C42.95,18.08,43.52,19.35,44.65,19.78z M104.28,93.4c0.35,0.01,0.48,0.02,0.54,0.02c0.02,0,0.04,0,0.05,0 c1.2-0.01,2.17-0.98,2.18-2.17c0.01-1.19-0.94-2.18-2.14-2.22l-0.48-0.01c-1.21-0.06-2.23,0.91-2.27,2.11 C102.12,92.33,103.07,93.35,104.28,93.4z M97.46,90.91c-3.83,1.81-7.9,5.92-8.36,10.99c-0.11,1.21,0.79,2.27,2,2.38 c0.07,0.01,0.13,0.01,0.2,0.01c1.13,0,2.09-0.86,2.2-2c0.3-3.34,3.25-6.19,5.86-7.42c1.1-0.52,1.57-1.83,1.04-2.92 C99.88,90.85,98.56,90.39,97.46,90.91z M118.19,118.29c8.67-8.61,8.9-22.4,0.51-30.73s-22.25-8.1-30.92,0.51 c-8.67,8.61-8.9,22.4-0.51,30.73c4.1,4.08,9.51,6.1,14.99,6.1C107.98,124.91,113.76,122.69,118.19,118.29z M90.9,91.17 c3.57-3.55,8.22-5.33,12.81-5.33c4.34,0,8.63,1.6,11.87,4.82c6.66,6.62,6.43,17.62-0.51,24.53s-18.02,7.13-24.68,0.51 C83.73,109.08,83.96,98.08,90.9,91.17z M55.28,66.01c4.27,0,8.83-0.78,13.58-2.5c14.25-5.17,22.17-18.29,20.17-33.44 c-1.34-10.17-6.14-18.61-13.51-23.74c-7.32-5.1-16.77-6.58-27.34-4.26c-9.79,2.14-17.66,7.98-22.15,16.43 c-4.44,8.34-5.11,18.22-1.8,26.43C28.95,56.63,40.43,66.01,55.28,66.01z M31.88,21.57c2.53-4.75,7.65-10.87,17.73-13.08 c2.83-0.62,5.52-0.93,8.06-0.93c5.38,0,10.09,1.39,14.05,4.15c5.83,4.06,9.64,10.89,10.74,19.21c1.26,9.53-2.25,21.46-15.87,26.4 c-18.12,6.57-31.48-3.1-36.22-14.85C27.82,36.14,28.39,28.12,31.88,21.57z M104.7,67.75c-9.49-0.22-18.36,3.33-25.03,9.96 c-0.01,0.01-0.03,0.03-0.04,0.04c-0.32-0.39-0.72-0.72-1.22-0.93c-6.75-2.93-13.18-4.88-22.66-4.88c-16.5,0-31.39,6.51-41.93,18.34 c-9.57,10.74-14.13,24.57-12.49,37.94c0.11,0.91,0.6,1.74,1.35,2.27c10.57,7.56,29.41,12.32,50.22,12.87 c-2.73,2.78-5.52,5.75-8.11,8.75c-4.22,4.9-3.91,12.27,0.72,16.79c0.61,0.6,1.66,1.55,3.13,2.82c2.46,2.14,5.51,3.28,8.57,3.28 c1.15,0,2.31-0.16,3.43-0.49c1.45-0.42,2.56-1.02,3.37-1.83c2.57-2.56,16.08-16.3,21.3-22.12c1.89-2.1,2.39-5.13,1.3-7.71l4.49-4.46 c4.96,2.36,11.23,3.94,16.37,4.05c0.26,0.01,0.52,0.01,0.79,0.01c9.18,0,17.76-3.52,24.24-9.96c6.98-6.94,10.7-16.36,10.47-26.53 C142.54,85.69,125.01,68.2,104.7,67.75z M75.49,82.73c-4.26,6.18-6.47,13.61-6.29,21.51c0.18,7.95,2.86,15.76,7.58,22.2l-3.39,3.71 c-0.34-0.13-0.68-0.25-1.01-0.35c-1.74-0.54-3.61-0.38-5.24,0.38l-6.17-39.26l6.61-11C70.29,80.64,72.83,81.59,75.49,82.73z M55.75,78.52c2.67,0,5.04,0.17,7.24,0.49L56.9,89.12c-0.56,0.94-1.47,1.03-1.84,1.02c-0.37,0-1.27-0.12-1.81-1.07l-5.67-9.94 C50.24,78.73,52.97,78.52,55.75,78.52z M23.13,132.49c0.29-7.74,1.86-15.32,4.69-22.55c0.66-1.69-0.18-3.6-1.88-4.26 c-1.71-0.66-3.62,0.18-4.29,1.87c-2.87,7.31-4.56,14.96-5.05,22.77c-3.37-1.29-6.36-2.75-8.85-4.35 c-0.92-11.05,3.06-22.39,11.03-31.33c6.47-7.26,14.84-12.24,24.26-14.58l5.91,10.36c0,0.01,0,0.01,0,0.02l-6.39,45.65 C35.56,135.37,28.95,134.15,23.13,132.49z M46.95,136.47l5.93-42.33c0.67,0.24,1.39,0.38,2.14,0.39c0.03,0,0.05,0,0.08,0 c0.67,0,1.31-0.11,1.92-0.29l6.15,39.13c-1.1,1.03-2.33,2.2-3.64,3.45c-0.04,0-0.08-0.01-0.12-0.01 C55.2,136.89,51.02,136.76,46.95,136.47z M80.38,146.19c-5.07,5.66-18.55,19.36-20.98,21.78c-0.06,0.04-0.25,0.12-0.6,0.23 c-1.93,0.56-4.15,0.01-5.8-1.42c-1.71-1.48-2.49-2.21-2.85-2.56c-2.15-2.1-2.3-5.54-0.33-7.82c6.42-7.45,14.28-14.84,18.98-19.26 l0.9-0.85c0.15-0.15,0.35-0.23,0.52-0.23c0.05,0,0.1,0.01,0.15,0.02c2.14,0.67,4.56,2.06,5.9,3.39c2.33,2.32,3.24,3.59,4.24,5.93 C80.63,145.66,80.58,145.97,80.38,146.19z M88.81,131.37l-5.73,5.7c-0.61-0.71-1.3-1.44-2.11-2.26c-0.48-0.47-1.03-0.94-1.62-1.39 l3.81-4.16c0.41-0.45,0.66-0.98,0.77-1.53c1.58,1.38,3.24,2.57,4.98,3.57C88.87,131.33,88.84,131.35,88.81,131.37z M92.32,130.63 c-3.28-1.48-6.34-3.7-9.1-6.6c-0.05-0.07-0.09-0.15-0.14-0.21c-4.53-5.59-7.11-12.59-7.27-19.72c-0.19-8.36,2.85-16.08,8.54-21.73 c5.38-5.35,12.55-8.22,20.2-8.03c10.65,0.23,20.59,6.45,26.44,15.25c1.18,2.89,1.9,6.04,2.07,9.31c0.46,8.87-3.02,17.69-9.53,24.21 c-6.56,6.56-14.09,9.93-21.77,9.71c-3.18-0.09-6.25-0.79-9.16-2.06C92.51,130.71,92.42,130.67,92.32,130.63z M127.84,127.83 c-5.38,5.35-12.55,8.2-20.2,8.03c-1.94-0.04-4.12-0.36-6.32-0.88c0.13,0.01,0.26,0.02,0.39,0.02c0.25,0.01,0.5,0.01,0.75,0.01 c8.04,0,15.86-3.57,22.65-10.37c6.94-6.95,10.65-16.36,10.17-25.83c0.66,2.36,1.05,4.8,1.1,7.28 C136.56,114.46,133.52,122.18,127.84,127.83z" style="fill: inherit;"/></g></svg>